<svg width="387" height="387" viewBox="0 0 387 387" fill="none" xmlns="http://www.w3.org/2000/svg">
<circle cx="193.5" cy="193.5" r="180.5" stroke="url(#paint0_linear_3_7)" stroke-width="26"/>
<path d="M56.9837 259V127.364H80.8299V183.091H141.827V127.364H165.738V259H141.827V203.08H80.8299V259H56.9837Z" fill="#867CCA"/>
<path d="M332.608 193.182C332.608 207.365 329.951 219.513 324.638 229.626C319.367 239.696 312.168 247.409 303.041 252.765C293.957 258.122 283.651 260.8 272.125 260.8C260.598 260.8 250.271 258.122 241.144 252.765C232.06 247.366 224.861 239.632 219.547 229.562C214.277 219.449 211.641 207.322 211.641 193.182C211.641 178.998 214.277 166.872 219.547 156.802C224.861 146.689 232.06 138.955 241.144 133.598C250.271 128.242 260.598 125.564 272.125 125.564C283.651 125.564 293.957 128.242 303.041 133.598C312.168 138.955 319.367 146.689 324.638 156.802C329.951 166.872 332.608 178.998 332.608 193.182ZM308.633 193.182C308.633 183.198 307.069 174.778 303.941 167.922C300.856 161.023 296.571 155.816 291.086 152.303C285.601 148.746 279.281 146.968 272.125 146.968C264.969 146.968 258.648 148.746 253.163 152.303C247.679 155.816 243.372 161.023 240.244 167.922C237.159 174.778 235.616 183.198 235.616 193.182C235.616 203.166 237.159 211.607 240.244 218.506C243.372 225.362 247.679 230.569 253.163 234.125C258.648 237.639 264.969 239.396 272.125 239.396C279.281 239.396 285.601 237.639 291.086 234.125C296.571 230.569 300.856 225.362 303.941 218.506C307.069 211.607 308.633 203.166 308.633 193.182Z" fill="#867CCA"/>
<path d="M180.232 278V273.241L192.856 260.866C194.063 259.647 195.069 258.563 195.874 257.616C196.679 256.67 197.283 255.752 197.685 254.864C198.088 253.977 198.289 253.03 198.289 252.023C198.289 250.875 198.029 249.893 197.508 249.076C196.987 248.247 196.271 247.608 195.359 247.158C194.448 246.709 193.412 246.484 192.252 246.484C191.057 246.484 190.009 246.732 189.109 247.229C188.21 247.715 187.511 248.407 187.014 249.307C186.529 250.206 186.286 251.278 186.286 252.521H180.018C180.018 250.212 180.545 248.206 181.599 246.501C182.652 244.797 184.102 243.477 185.949 242.542C187.807 241.607 189.938 241.139 192.341 241.139C194.779 241.139 196.922 241.595 198.768 242.506C200.615 243.418 202.047 244.667 203.065 246.253C204.095 247.839 204.61 249.65 204.61 251.686C204.61 253.047 204.35 254.385 203.829 255.699C203.308 257.013 202.391 258.469 201.077 260.067C199.775 261.665 197.946 263.6 195.59 265.873L189.322 272.247V272.496H205.161V278H180.232Z" fill="#867CCA"/>
<defs>
<linearGradient id="paint0_linear_3_7" x1="193.5" y1="13" x2="193.5" y2="374" gradientUnits="userSpaceOnUse">
<stop stop-color="#B6AAFF"/>
<stop offset="1" stop-color="#867BC9"/>
</linearGradient>
</defs>
</svg>
